<mxfile host="app.diagrams.net" modified="2022-05-18T18:45:45.666Z" agent="5.0 (X11; Linux x86_64) AppleWebKit/537.36 (KHTML, like Gecko) Chrome/101.0.4951.54 Safari/537.36" etag="oUSgODe9V_NQ1Gizqu46" version="18.0.7" type="github">
  <diagram id="rxDA70gnGnYBVUDP96AV" name="Page-1">
    <mxGraphModel dx="2062" dy="1133" grid="1" gridSize="10" guides="1" tooltips="1" connect="1" arrows="1" fold="1" page="1" pageScale="1" pageWidth="1169" pageHeight="827" math="0" shadow="0">
      <root>
        <mxCell id="0" />
        <mxCell id="1" parent="0" />
        <mxCell id="BDgDIyLqdAixnrCIeVsv-16" value="" style="rounded=1;whiteSpace=wrap;html=1;dashed=1;" vertex="1" parent="1">
          <mxGeometry x="450" y="130" width="680" height="450" as="geometry" />
        </mxCell>
        <mxCell id="BDgDIyLqdAixnrCIeVsv-1" value="Actor" style="shape=umlActor;verticalLabelPosition=bottom;verticalAlign=top;html=1;outlineConnect=0;" vertex="1" parent="1">
          <mxGeometry x="30" y="330" width="30" height="60" as="geometry" />
        </mxCell>
        <mxCell id="BDgDIyLqdAixnrCIeVsv-2" value="" style="shape=flexArrow;endArrow=classic;html=1;rounded=0;sketch=0;" edge="1" parent="1">
          <mxGeometry width="50" height="50" relative="1" as="geometry">
            <mxPoint x="210" y="360" as="sourcePoint" />
            <mxPoint x="270" y="370" as="targetPoint" />
            <Array as="points">
              <mxPoint x="250" y="367" />
            </Array>
          </mxGeometry>
        </mxCell>
        <mxCell id="BDgDIyLqdAixnrCIeVsv-3" value="" style="shape=image;verticalLabelPosition=bottom;labelBackgroundColor=default;verticalAlign=top;aspect=fixed;imageAspect=0;image=https://miro.medium.com/max/256/0*xzfXdWrkrbDw7cIZ.png;" vertex="1" parent="1">
          <mxGeometry x="70" y="400" width="50" height="50" as="geometry" />
        </mxCell>
        <mxCell id="BDgDIyLqdAixnrCIeVsv-4" value="" style="points=[];aspect=fixed;html=1;align=center;shadow=0;dashed=0;image;image=img/lib/allied_telesis/computer_and_terminals/Personal_Computer.svg;" vertex="1" parent="1">
          <mxGeometry x="192.2" y="240" width="45.6" height="61.800000000000004" as="geometry" />
        </mxCell>
        <mxCell id="BDgDIyLqdAixnrCIeVsv-5" value="" style="aspect=fixed;perimeter=ellipsePerimeter;html=1;align=center;shadow=0;dashed=0;spacingTop=3;image;image=img/lib/active_directory/internet_cloud.svg;" vertex="1" parent="1">
          <mxGeometry x="800" y="624" width="200" height="126" as="geometry" />
        </mxCell>
        <mxCell id="BDgDIyLqdAixnrCIeVsv-6" value="" style="shape=image;html=1;verticalAlign=top;verticalLabelPosition=bottom;labelBackgroundColor=#ffffff;imageAspect=0;aspect=fixed;image=https://cdn4.iconfinder.com/data/icons/socialcones/508/Gitlab-128.png" vertex="1" parent="1">
          <mxGeometry x="670" y="40" width="90" height="90" as="geometry" />
        </mxCell>
        <mxCell id="BDgDIyLqdAixnrCIeVsv-7" value="" style="sketch=0;aspect=fixed;html=1;points=[];align=center;image;fontSize=12;image=img/lib/mscae/Kubernetes.svg;" vertex="1" parent="1">
          <mxGeometry x="670" y="500" width="50" height="48" as="geometry" />
        </mxCell>
        <mxCell id="BDgDIyLqdAixnrCIeVsv-11" value="" style="shape=image;verticalLabelPosition=bottom;labelBackgroundColor=default;verticalAlign=top;aspect=fixed;imageAspect=0;image=data:image/png,iVBORw0KGgoAAAANSUhEUgAAAQAAAAEACAYAAABccqhmAAABhGlDQ1BJQ0MgcHJvZmlsZQAAKJF9kT1Iw0AcxV/TakUqDnYo4pChOlkQFXHUKhShQqgVWnUwufQLmhiSFBdHwbXg4Mdi1cHFWVcHV0EQ/ABxc3NSdJES/5cUWsR4cNyPd/ced+8AoVFlmhUaAzTdNjOppJjLr4jhV4TQjTBExGRmGbOSlIbv+LpHgK93CZ7lf+7P0acWLAYEROIZZpg28Trx1KZtcN4njrKyrBKfE4+adEHiR64rHr9xLrks8Myomc3MEUeJxVIHKx3MyqZGPEkcVzWd8oWcxyrnLc5atcZa9+QvjBT05SWu0xxCCgtYhEQdKaihgipsJGjVSbGQof2kj3/Q9UvkUshVASPHPDagQXb94H/wu1urODHuJUWSQNeL43wMA+FdoFl3nO9jx2meAMFn4Epv+zcawPQn6fW2Fj8C+reBi+u2puwBlztA7MmQTdmVgjSFYhF4P6NvygMDt0Dvqtdbax+nD0CWukrfAAeHwEiJstd83t3T2du/Z1r9/QAi63KHKSCkbQAAAAlwSFlzAAAN1wAADdcBQiibeAAAAAd0SU1FB+UEBggJJldqtoEAACAASURBVHja7Z17YFTVtf+/65zJYxKSMwmZmRjAWkWr4Kv46kW0tgJFQLC9Sh+21tqH7c/WCkImgK3z669CZoLQcmuvWqulPlq13oJaWxCpBbRauT6uwtXWqpXnzIRkzoQ8Z85evz9Aq1aEZHaSOWfW5z8lZ52z16z13Wvvs8/eBKHoqRq55HjTZ17FzMcB9BqBb04nm14Qz3gfEhcUN4Fg/Aom/imAsnf87xwRzU8nGn8sHhIBEDxKdTA+nYgfPlgcMPGlmUTTPeIpEQDBa2V/w7I6I+e8CKD+A/7MJtM8Jb17/j/EY97EEBcUJ2ZOrThE8gOAhZzzE/GWVACCh7DCLR8Gq78C8B1WkLCakE4tfE48JxWA4AnVV/MON/n3X2DOE69JBSB4gIaGaEVnzp8EUNmPy7KO4Yzat2dRSjwoFYDgYrpy/mn9TH4AKDHZnCXeEwEQ3M9FA7mIFc0W18kQQHA1UZ8V8icA1A7g4p5yMuoSiQWd4kepAAQXYtVVnDzA5AeA8h7kzhIvigAIbsXE6Xldr4wzxIkiAIJbUZxfAhOLAIgACK6F8qwAQKeLE0UABFfCBOAjeRr5UENDtEJ8KQIguIwR4WVBAP587XT0+ceIN0UABJdhOupILQFj4EjxpgiA4Lbhv67EJREAEQDBdSimUTrsMGO0eFMEQHBfBVClpwCgEeJNEQDBbQKglF+PJZa3ACIAguuGAERaEpdFAEQABBdWACAtFQBpEhJBBEAYSphL9ZihMnGmd/B5tmVHRcutbv+lYDoNYGaml0uZH2htjewqygqAqIfBGioJ7irWZBk5cvmonC93AUGdzExlRPSyKvGtyuyY1yYCUEBUhm4Im12+xwCMx4GgJ2JkCSusUGwDQMvsZOO6oioAdCUuo+gEIBBc+lFFRjSH7EwwDD6wjQYzg/qyTTWhlintyQX/I0OAglE13woCxr/PP5kApgC8tjoUX22F4scUzxyAnsQlo3gqgKpRS0Zaodh/MhnPEDDrIPkSUlC/PPCthQjAcGNZS2sAXHwYpexsgF+yQs3fKo4pAHTrKQCoKASgOth8gZE1XwbwzQMdxwdxSnV9/AwRgELo6UrMkwGUHOaflwP000Aodlc43FLp6YgmTmuxo2B7O/XvMwOh2A+I6GEAdYd9mcMiAIWAon7veAsGLu1h9VRt7Y2e/dKN2diuxQ7hTa/6qK4uVmWFXnuEge/1NzdoAHEnAlBYnOj4cpurg/Fjvdg40yAtiWsyeVIAAoEVgayBtQBNLaag95wAGKaTzxj1SCLeWBNuPslzAuAoLQd8ss/wnABUhm4Ic2nfnwD828ArLHfOjXhOAHLgrXmaqFdMf6ytbx7vJb+0tkY6QGjP173p3VWeWkdR1bCszkcljwM4Ob+OB1tFAAqAfXsWpQjYnaeZkY7C2pqGZq99+57vu+ptwJVZrzhj9OjlfjPnrAHz8fnackxH1gEUDIRnNRgZpXL0cCCwIuAZvzA9k9/1eMY7QRL1ZXpz9zIwUYOxf3TsXLRXBKBQ4pz5d5pMncQl2d8Ct5R4wjGELfldz54RACvkv4mIL9TjVnrYrX7wpADk4PwXAKUnafi86lB7zBuecfJLYMVbPJH84dhXAXxDX2Hl/JcIQAHRmVycAPAXfR0nXWOF4v/udr/YiYWvAfjrAC9P2q3HPO92H9SEW04EY6VGk3vtRO9Gt/rDs18DMvNdRPQxbRoA/nl1cOkLmdTCVwu64UdFy2u6K8cq5gaCqmdGAwP1ZNARYK4lcBUP4ExYBv4WCL8+Q9HS3Y5jbu9MNe5xW0zU1cWqsqweAKBtTwMC/RqI5tw7KvQowWB0RB/5twPQOYn3nB3s/hi2RvuGv4VRn1VXdgqRcSIbOIEVjSPicQCOwqHXruuInHZmbCXQVmZsJYO3KdN8oWPX/NbCHffH7wb4Czr7GeU44zr2LnpZBKAAqQ7FbiRgntbKAvh+Jhn5f8MhaDmUn6pAZxMwiQnnALAK0O2vEfAEE202ST3RtqepIN6PV4XjMw3mhzSb/YOdjFzg5hzxtABY4aVHg42/au4Rex3DnLBvz/xtgzyIIauu5aNsYCYxZoL4NLhyzoZ3MvAYwXiwlLvWplLRfUP9BIHAioAq7dtKQIPeYSbNyKQaHxEBKOgqoHkVgS7THNRP28mjzwbmOHrt3lJSXdc+lQzjQkDNBPTs5V9A9ICwAaA1WSf7UFfr4t1DcVMrGPsZCF/TnDlb7ETjmQCxCEABE6hfehQr42UAWveyY+ZvZ1JNN+mwVVvfPN5h+hIYlwMIozhQBPyZiX5ZDro7kVjQOUi//3msjA3aY50w2U5EHnP7j0DFEGnVoeblBJqr2WyrkeWx7e1NA/o+fkS4JWSycxlAXwZwIoqbNIBfs6Fuz+xZqHGxEZMVbnkGzKdpft61djIyzQuOLwoBqGpYVmfknFehe9KMcYOdilzX797eoWtA+CKAcgjv5XkGlmWSgfvy/e6gOhz/PDHfo3tSA4pOt1sbnxUBcFMVEIx/h4hXajbbbeZwXFtbZMeh/rAm2DyJQREmzCgmv+fBHgJuQV/pj9LpuQPYzeiWEiuU3gZgrObnutlORjyzjVzRbAiSSXXdRMCTms36HR8t+kDhqWueYYVizymiTUyYKcl/2NQzcD2X9r1uhWNLqkcvr+3fsC/9df3JzzuNLDd5yclFFYxVdbGPGAae11x69zpkHLkvsSD5rnuFmicaREvA+Ljkshb2gXBTiYMbWlsjHR/8p1HDCvn/CuAYzcny6XQystpLTi2qLcE6WiOvMLBEs9kyU6mvvvUfVl18ghWKrTNAT0jya2UEGJGswf9rheNfA6IHXcYeCJdfqDv5QbjPa8lfdBXAW2PDQCj9uKbvwA9UhtjudDunmRVmFMCVGIqluMUO439hqG/biYUb3vtPVii2HsD5Gu+2wzGcCfv2LEqJAHiA2tobxzi+3LPoz7bPh4hGgGwU5tJcb0O434Hx7beGYFUjlxxvmOY2jbGdVaBPdCQbn/Cm+4oUKxw7H4y1RdRb9wFIgigBZgfgDEAMQvpAIFQwcxmBKpioDIorQDwKoGoXtK0NhEY70Xh7dSh+HQE/0Jgg89PJyI3e1c8ixgrGfgjCYg81KQHQVoBfZmArwH83ydyZBZLvnaQ8XBoaohX7shWjTKDeMdQYUjQOhBOwf/HSMYUkoAxsIqIaMOtaWLXaTjZ+xu3LfUUADkrUsEL+e3EYR4kVIN0AngHzZmY8ifLSPw/5KbVjV5ZZ6Z7xTDibDJ5EjHMYOGLYZUBPWL9oZPmcga70FAFwC0dFy6u7/OsIOMcFT/siCA8bih9pD/X8pTD2JXg31cGlY8kwz2OFWUQ8GYDfhVHxeo5pohs3PREBGAA1Nc2WKqGNyHNv+EHqzjYx832Gyb9L71n4hpv82tAQrejK+acq8Gwimg1GjQsee69SOLujNfJKMcS+CMABDrwZ+CPe+/6Yh8FLjO0wcA8rdVvBb0HWj+FCTUfXVAX6EhifRiFuR0doZxgXZBILni6WuBcBeAcVdTcc4TN8jxIwHKcCOQCvJsbKdCqyycsTT7W1N47J+XKXG8C3hn/O4G2SxPSpdKrx+WKKeRGA92BZS2tQZjwC4GNDdMsOZr6dDF55YNfe4mHsyrKA3XMpg+cfeLMwXEmw2zB4SqFsXyYCMKxEjepgxUoivmqQ6/wMgVZQlld4fab5MHxBNeHYTMVYDNBZQ3zrZ0zH/Pe2tmu3F6PnRQDeyfhoqZX0rwLhc4N4lz4Av8gh9/0D5xcI76zAwi2TwWo5gJOGIPjvHFFacuWOHfO6i9XfIgAHCARWBLgk+1sQnzdYfQ0IvyhxcF1ra2SXePwDqzCfFS7/ChjXD+K+iN1kqOnpPQsfL2ZPiwD8M/nXgfiMQbrF8wr0ba+uJx8sGhqiFZ2O//tgXIvBeWvQC9CldrLxARGAYi0590/6rQcwYRDMp5n5ukzq6Jv17yBcRL9RXXwCTL4FjNMHwXyOib+USTT9WgSgGJO/3Hx0EDaNBIDHzJzvK8U6uaSf+8xA+PXvMGMJ9K8uzBLxJelE0xoRgCLhwOq/dQDO1Gy6B4yonepuAaJKElcvI46InWA6uAfAqZpN9zHzRZlU0+9FALzO/vX/jxIwSbPlFxwTn9+3O/K/kqqD/Pt1+pcS4buaY7jLYJrWnmrcJALgWQbnC0AC7qzwdX9z165ol2To0FAdjE8ng+/S+40BZ6CMT3hl228RgH8JmtgKIlyj0WQOjOvsVCQmKTkcv+fSsQbRGgaN05gUu40czjyc7d5FAFxEIBy7hhkrNJpMKfBFHcmmJyUVh4/a2pXVqqT7HmbM0JgZWyrN7o97vaIrml2Bq+uaZzBD59ZOf2dWEyX5h5+2tqsz6UT3LAaW6xsJ4PTOnH8VwJ7uJItiPzwrvPRoMow/AKjQ1TvkkJu8L7VIXvEVDI9zb+f6deUVU3pAOF9TdTuuvGJzSW/X+g0iAC5l9Ojl/j6H1wH4sKauYV0p90xPp77fLklXePR2rX+ifMTUnQBmaKlwiSb5R0x5rqdzvSc3CPH8ECDT1/dT6HtnvNau6JmdSkX3SaoVLnai8TaAPov9H17lLQHMuKO29sYxIgCuK/2bv06gy/Ulf/dFeCPaIynmAhFINj4AxqUAdCzBrs35cvd80GlEMgQoMKqDS8cSjNUASnWU/XZFjyS/+4YD2/yVk98AaHa+cwIEHFleUWJ6bT7AowJwn+kfYT8ILefD8dOVvp7pHduj3ZJS7qOnc/0L5ZWTUwBNz1cEQJjkr5qyqWff+je84h9PvuIIBOOnspH/Gn+GymT8Paul5/fAcLAuPgFm/l8TMtCRSXTdD0Rz4lVBEARBEARBEARBEARBEARBEARBEARBEARBEARBEARBEARBEARBEARBEARBEARBEARBEARBEARBEARBEAaKlk1BA0cs+xDn1IA24bRDXWuwNZrXAQ619c3jHcfo9+mwZKi+dKJpTT73rgm3nKgUnzDcPySbzhuZPQufGfBvGGo+hdk4rt/3BTozqcZHCiWga8LNJyllHP++/9jnrLftha450amqbslxBvlOeb9/y1F2Y2dycSLfe+g56MDJfRxEqwZyqbWjrNbO8wQXpegSEF/f7+BlagMwMq/EU85nQXTdsCs5G3cAGLAAKODLRDx3AD3IG9B27Fr+KNDnQbzwfZ+1jLbV1t44ra3t2oI/0zEQbD6XiR4E2Hr/xPVNBfBovvcpmtOBBYFB4xxfblPVyCXHF3Tyh2OzmOgPAKzBvpcIgFBsfMgwzSeqQs0TC7Pnj32ZGQ8A8A/F/UQAhGKk1gCtqw42X1BID2UFYxEm3KFtaC4CIAgHpZKIHgwE41cUwOCErFBsGQjNGOLTukQAhGLGx8S3WaHmxmF7gvHRUisUvxvAtcNxexEAodghgGKBcOzHQHRI8yEcbqm0Uv41AD4/XI0XARAEAMy4OhDy/wK4pWQo7lc9enltD6tHAUwbznaLAAjCWyIAfMkKpX9XVxerGsz7BI5Y9iHqyz4J4N+Gu80iAILwbqZkDayvalhWNxjGR9QvG8c5ZxOAjxRCY0UABOFfOdPIOhtrGpqP1Fr2h1vOMpWzEYQxhdJQn/zWw0Y3gDt1GSOFJ8WlGiGcoLK0eUT9smn79szflq+5mnDzhYrVvRiiBT4iAIVPh52MXCluKGgRGGOys7km2DyrPdW0ecA9fyj2JcX4OYCSQmuiDAEE4YNg1CiitdV1zTMGcnkgHP8uAasKMflFAATh8Kggg9ZY4fjX+qEcZIXiMWb+EYZ4dZ8IgCDoxwTzrYFQLHroP436rHDsNoAbC71RIgCC0I9ZAQau/6BVgw0N0Qor7F8Dpivc0CARAEHo77TA/lWDv3zvqkHLWlrTlfOvA2O6W9oiAiAIAxEB4FIrlP79W6sG6+piDSgzHmfgbDe1Y/hfA5YZG6xw3MlTkhskJIVh4PysgfWBYPOCLHAXUDgLfNwjAMCpYM5Xjd1IhRWMRfI14pjmQzoWqggD5kwm+pNbH14WAg0fIw5sAJHfGI5z2wGIAAgyByAIggiAIAgiAIIgiAAIgiACIAiHwCHwUE+m/lkEQBAKRAC4lycxsHlI7kaIGTz83wqIAAjCAWx7YXum2j8ZwG8G8TZMwHw7EWmSIYAgFBqvXt1rJz/8OQC3DoL1Pia6NJ2M3ChzAIJQsMxx7GTkSjB09tKdzDQ7k2j8VSG1VARAEA42JEhFYsz8bQAqT1NtCsaUTKrxD4XWRlkKPHz0gvBgvkZMhTfFlYNHJtV0kxWMJUC4C0DZAEz8QznOtI69kZcLsX3DLgAMrCKgNy8jRKeB+TS3dTB2IjJHUswVlcBvAvVLW1kZqwFY/Yjtrb4cptlti3YUatuGXQCoV8217YXt+dgIhGJRBk6TUBUGi/SehY/XhFsmKVa/BzD6MC75C/vMGW3J+a2F3C6ZAxCEw6Q9seAlMtQ5AF45RN+/vpS7z+/YVdjJLwIgCP2vBN7g0pKJhPc/iIVAd9nJmumpVHSfG9ojAiAI/SSzY15bGRlTQXjkXclPWJlOdn0ZuDLrlraIAAjCAEgkFnTaie7ZYNyG/av7/m86EfkuEFVuaoe8BhSEARPN2Sn+RlUodkdHssmVZzOKAAj5cqQVjrVps6bwgJ2KfN09zSfuSLr3YFYRACH/YSSjRl8+oVJcKgJQDJRa4ZbJuow5RLtkd2BBBMA9BMDqUV3GTOAOAFeIW4X+lW+CIIgACIIgAiAIggiAIAgiAIIgiAAIgiACIAiCCIAgCCIAgiCIAAiC4F60LAVmZbwEk2MDubaqqqzHtvO8PxmbAdXv+zNTV95tJ2MTaGBt14rCljzbsYHAfcPdDAa9kF8s0kYyuP8dm2JnyNtq8g4wxQbYzjdEvgRBEARBEARBEARBEARBEARBEARBEARBEARBEARBEARBEARBEARBEARBEARBEARBEARBEARBEARBEARBEARBEATBTZBnWzZ2ZVl1pvsxIozTYC1NKveZdGrx8xIybuI+0wq//jMAF2kwpoiMi9N7FjwuAuASasLNJymmPwOo1GCu1YBxfntywf9IYrmBqBEIVaxi8Be1mGNeYqeaFnvNS54+Gag90fQiE31dk7k6BbW+Jtx8kiRXgTM+WmoF/XdrS37w03aqJupFV5lej4Xezkdf8o+YUgfgTA3mKhk0p7TyU5v6Oh/dIZlWeITDLZW+Tt9vQVrKfgDYa/gwuafjmnYv+qsozgZMJwLzGNisydxIA+qPVjB+iaRbYREIrAj0sloLYJomk1mQmtO+q+lNr/qsSA4HvTLry+HzDOzSZLAMxL+yQs3fkrQrDKxQ/BhV2reZgbN12SSmb9qJhRu87DcqpiAJBOOnMqk/AVStyyaDV2SSPY1ANCdpOEzJH46dD8a9AEZqNNtiJyONXvddUR0Pnk41Pk8GXQRA2ym4BJpbHfJvqAzG6yUVhyP5498A4/dak5/wiJ388MJi8B8VY9AEgrEvM+EOve3nnUx0cSYReUrScvCpq4tV9Rn8EwJdpjkhniwjY2oisaCzGPxoFmPw9HStf6F8xJQcgE9qDJ1qAi4rr5iS7e36xlPA/SxpOjhUh1vOUsRrCfQJzaafNbI8tbU10lEsvqRiDqRAKPYDBr43CKafYqbLMqnGv0m66iRqBMIV32HmOIBSzcZfySH38c7k4kQxeZSKPaSsYOyHIAzGCq99ILrWTiz4GUBSDeRJTbjlRGZ1CwMTB8H8q1mVO7erdfHuYvMrSWgBVji2BIyFg+TgJwC+Kp1sekE83X9Gj17u78hmvwfGfAAlg3CLvxk+nuzld/0yB3AIejvXP1ZeMbkUROcMgvkjAfqaf8SUOn/p5D/39KzvFY8f5lg/2HxBn1IPA5g1SLH6XA658zN7Fu0qVh9LBfCugItdTYQVGLzXo3sA/oEd7Pk5tkb7xOMH+R3ql55BymwG+JODdQ8m7DX7eEJ7e3H2/CIAByEQil3EwD0A/IN4mzdBdIOd6LpdFhD9k6q6JccZpvlDMC4eoth8jVhdnE4tfE4EQHibmmDzVYroPwbbPwTepoClmWTNvcCV2aIV3eDSjzIZCwBcAsA3xLfvYeKvZhJN94gACAjUxz7BCg8CGDF0d+WdYPyEy0pvzeyY11YsvrZC8amAWgDQ5GF+FCaiuelE449FAKT8/zWAsmF6hE6A7mLiX3h1RWFl6IZwCXxfBPgKBo0roEdjgJvsZFNcBKA4k/8zDNw7DCXoQX4ZehnAnWbWvLOt7drtrnbu2JVlgY6uaYrpCgIuwOC8ztPl98V2onGJCEBRjfnj5yjidQDKC/DxFAFPMfNDhmE+3J5Y8JIrBDWwIqDKeqcTaDYYFwCockk4MDF9LZ1qvF0EoAiorW8e7zBtAqPGJY/8OhF+x4o2ljA/0doaKYh32KNHL/fv68mdqQw+l4CPAzi3oHv6DybHTLMzqcZHRAA8TF1drCFLeAqEMS5uxhsE2qwYfyHD2ZpT5rbOVOOewU72jp7cCWSoExnGSQSeyMDp0L8+fyAh7QCsY9FQJxTOs1sjW0QAPEnUVx3ybyDgHA82ro2BbQC/Skw7GZQwiHc6oASxkyADikvK0tTRy7bdawNRFQxGR/T1lZUYlVSlHPaRgqVgHmEA9Yp4FAH1zDSGiE8AcDQKby8Jm4FFAH2KwLP0DAawXZWYEzp2zW/1ahb4ijX9rbD/h2BPJj8A1BIwCaBJIIDAYAAGGCADYID6skCZASvkBxDbv0NKGaBy+/sFfsd1b/USVKjfNBHuL3FwTWtrZFcgGO9iwixNdscYjrMK4Jle/aDLKMbkr65rngGG1u2eiPEwAPnqb4jnQ5hphp2IzHl7LiRbshqAvs08GNOtYNyzW4MVnQDU1sZGk0GrNA9/NqZTkQuJ+TwAL0leDjr7CPyDSl/3ie+dqEun56YB+qXmCuOHVaH42SIAHiDno59A7+aRIODHAJBONW20k92ngGkOgL9LnmonC+DWrModl042Xb9rV7Tr/f5IqdyPNFdjPgN8O46KlnvNoUU1CVgdil1KwF2azb5pJ7uP+dePem4pscL2V5j5egIaJHfzLMQJv2FFiw93lyUr1LwWoKl6n8J7x4MVjQBUjVoy0sia2wCENJv+lp2M3Hywf2xoiFZ05vxXETCXgSMkl/vX4xPoXkAt6++GKjXB5kmKaJPuAhKKzrJbG58VAXAZgVD8Tn1nxb3N3+xkYPxhfck3PlpqJStmg9S1AJ0luX2IMT7hdjL5xnx26gkEYw8xYabmjNliJ7rPAqJKBMAtpX/90jNIGU9rby/THDvVeH9/L7PCSz9JypjLhOko0jcxB+FVgH9GfWW37p/My7PqG7nkeMM0X4Tm193EuDydiqwSAXAJVii2HsD5mpP/GTu14Kx83g+PHLl8lOPLXczMXwFwSpEmfQ8IDwHGrXZi/mO637dXh5rvINDlmqckdlaVlh67Y8e8bhGAQu/9g/FpRPx7zWaVAp/TkWx6UttzhlvOIlaXAfgsNL+lKEByAG0kxt0+5vsHcx/+ymC83mfwNt3fehD42nSyabkIQEHDZIXi/w3go1qtMn6USUXmDs4z32dadX8/lQzjQiaaCebTPPJjdBFjAxv0UI6za4Zy/30rHPsqGLdpNrvXzPmPbmu7OiMCULClf3wqwGs1m/1HKXefmEpF9w1RBXOsQTwLjPOYMBFArUvcnwXw3wCeYObHMlbFBrx69TDtiMxkheJrAUzRmjyEuelE5EciAAVKIBx7mBkztIYSeFom2bR2uAJ5RP2NJ5icO5uZzibgYwDGojC2d08A/ALDeMIweFOF0f30wRbqDEss1C89ipXxIvRu9fa6nfzwscAcRwSg8Mb+xxLxy9A7y/5TOxm5qqAaelS0PNBZcbwycAIpHg/CCQCOw/41B7rnEroB7ARhJ5i2Mfglw1DbHJNf7Ni5aG/hV4TNVwJ0s06bBvGs9kTTQyIAhSYAoeblBJqr0VNb7Cr/pOErYwfA2JVlgc6+esfJjTJBISYKQalvgugw50Te9S3gY3aycbLb48IKxe8G+AsaTa61k5FpIgAFBZMVjP9D40YfaZA6zU4sfM3VbhkfLbVS/iQAawBX95k5f9Dtk17hcEtlLzt/0bghaU75zCPcumeAJxehWHXx0zQmPxOMK1yf/ACq95adMsDkB4BSx9fzMbf7IJFY0GkYmAN9nwz7zKwzw63+8OYqNOJP6ysmeFE6ueC3nvCLMs7Is1483QtuaNvTtFURfQ6AllOZFNGnRQAKSgBIy5lyBLrJTjU1e8cteSYw8xle8UVHovFhAN/REyf8SYBJBKAgiBoATsy74wceTCeP+q6nXMP59uDeEQAAsJORm8G4QYOpKivUcrQIQCGMc4MVxyDvd728vrq05HNufr/7vlMZwLF59nWjgsHoCE+JQKrxewDyfjVIoJNFAAqDY/LrJGmNXV0x0wsferyTymBLGBoOPun2+cd4K1yI7WTj/wFoWX5x4xwjAuD+Nv0qk7QucdW7/sPENOhDWpyb02OnAEVgARhNxZZL8i362x0/NdvJ7i969ZhuUnykFjsGjvRqENipSAxEXwfQUyyBb3ivQc7ufuZ+BqBL7ETjQq/s8vL+CsdatiMjZk/vb2gnGm8jVhMBvNY//2KXCEABkE7VvgQgeZg/2mbAmGAnGx/wutKToedwTgZVet1X6dTC57i05AwQ7jvMS5QvR4+LABQEV2YBbjnEH+1g4kszycZz7WRjcWzfreDXVEtUFIO7MjvmtdmJyGfJwCcBvHiI6uqXbW2RHSIAhVLGJXuWg7AU2H/i1dspQPgTMX21nIzjM4mme7x63NP7BinpEQAuEgF4uxrYE/mjneyeANDFDFrznphigO4Z4eu5yq3t8/R+ANWjl9caud6T4ZDKAgLK1QAAAeVJREFUkvPKUO5CU2hYodh/Avimhoi5305E5hSrHwOBFQGntHecQeT35Upe3rt33k43t8fTh4NmdsxrA/A4BIBRokXuGSXF7MYDuxU/6ZX2yGvAIoEMaFrYRF3iTe8gAlAsBQBrSlxmEQARAMF1FQBYSwVABkQARAAE91UAeoYALEMAEQDBjb80t2mxozgtzhQBENxWAShjuxY7Br0p3hQBEFyGMg0ticsMEQARAMFt+J19WhK3JGeKAIgACG7jwFFm+R7ekW1r69gt3hQBENzJ83le/yIQzYkbRQAEN0LYkqeBZ8SJIgCCW+E8E5hYBEAEQHDtj+1Tz+SX/7xFvOi1olAoKgKh5q0DORePgV2ZZOPoYtpDQSoAwXujAMbqAfYUqyX5RQAEtwuAyasHdiWtEe+JAAguJ7OnaQuAV/t5WcIOdj0u3hMBEFwPMQMr+ncJrcTWaJ/4TgRA8EIVUNF9O4DD3R+xU/lyt4jXRAAEr/BGtIeIlh5W5w8s69i5aK84TQRA8BDpRNd/ALThEH/2bDoZuEG8JQIgeI6oMnPm5R9wpNVepfAFr56VKIgAFD1tbdduJ1LnAPz0e/7pBccwz+1ojbwiXvI2shJQAMBUFWqZaBAfT6T+nt7Tu9HLB6UK/+T/A51LAfBaPxlyAAAAAElFTkSuQmCC;" vertex="1" parent="1">
          <mxGeometry x="570" y="480" width="70" height="70" as="geometry" />
        </mxCell>
        <mxCell id="BDgDIyLqdAixnrCIeVsv-12" value="" style="shape=step;perimeter=stepPerimeter;whiteSpace=wrap;html=1;fixedSize=1;" vertex="1" parent="1">
          <mxGeometry x="90" y="334.75" width="110" height="50.5" as="geometry" />
        </mxCell>
        <mxCell id="BDgDIyLqdAixnrCIeVsv-13" value="" style="rounded=1;whiteSpace=wrap;html=1;" vertex="1" parent="1">
          <mxGeometry x="180" y="440" width="120" height="60" as="geometry" />
        </mxCell>
        <mxCell id="BDgDIyLqdAixnrCIeVsv-14" value="" style="rounded=1;whiteSpace=wrap;html=1;" vertex="1" parent="1">
          <mxGeometry x="182.5" y="520" width="120" height="60" as="geometry" />
        </mxCell>
        <mxCell id="BDgDIyLqdAixnrCIeVsv-15" value="" style="rounded=1;whiteSpace=wrap;html=1;" vertex="1" parent="1">
          <mxGeometry x="182.5" y="610" width="120" height="60" as="geometry" />
        </mxCell>
        <mxCell id="BDgDIyLqdAixnrCIeVsv-17" value="GitLab pipeline" style="text;html=1;strokeColor=none;fillColor=none;align=center;verticalAlign=middle;whiteSpace=wrap;rounded=0;dashed=1;" vertex="1" parent="1">
          <mxGeometry x="760" y="60" width="110" height="30" as="geometry" />
        </mxCell>
        <mxCell id="BDgDIyLqdAixnrCIeVsv-18" value="" style="shape=image;verticalLabelPosition=bottom;labelBackgroundColor=default;verticalAlign=top;aspect=fixed;imageAspect=0;image=data:image/png,iVBORw0KGgoAAAANSUhEUgAAAL4AAAEJCAMAAAAdEm3WAAAAwFBMVEX////YZhMAAADWWwDVWADXYgDWXQDikmj77+b//frz1MTuwKfXYAD018ft7e3XYwfExMR1dXXR0dGcnJyqqqpSUlL4+PgkJCTfg0g9PT3xzLhmZmb88+2Hh4floHr9+PTl5eX45drtvqTwyLPcdzbef0ToqYfgh1BcXFy7u7vrtZjabyX23tH56N8tLS18fHzhjVzlnXXpr4/cejsVFRXLy8tCQkKgoKDbcy3abB3gili+vr4zMzNfX1+xsbEdHR2e6pomAAANRUlEQVR4nO2daVujMBDHK9BqLRZbLfXqluparVprPdf1+v7fagkkkBkIEI6SfR7+L3Z7AP4aJskkGSatVqNGjRpFNOv17upmyK27J6PTMX7v1s2RSzsPhrXlyjKulnWzSKs7N8wtqrbxa1o3j5wu2p0tTqbZq5tIQne/9S0k/fde3VQZxYweyjIeduomy6KbjhlCm/xrfd6tGy5NJ++c0bf1X3O9Hb7vWBd18yVqdsXZjaVfzVqt5V+dMyX9Sd1ubPrL4Ipaf6f91e4tV5EtY/usXkqRztvA6G+4b0AV6NwoWAV2/3Bl3NbXoIyna1AF3k/qohRo+QCM/miGD5gdcVXAMqIH1KjpXDdTCxe2ScZamSrQszgwU38UmHb3xhRVjhp198Q3LPpDgnt5tg0a0dv6Xemdbd5D0P+keDbwtxp/63Wlu4/AQ2ifp59ysQW75Rpd6Yv3HCjTOfzJdbnSd5c69hCyaecBVIFaXOmzNc/QuZXqifZ+gyqweVe6aCMIPYwNu9Int5zRW3oeL2z6qy5XGrnFlzl9YHCZjbnS2P0qUGwnm3elodF2RB5CRsEq1HksCVIk4BaX0WScrXkL6mxV6Uov/xrlN9io+7isypXugmF3id0l8CMsvRpXuscbfVufl+isdB/1il3pu9+VuopwaqtTsiu9U72jDstHwoNKFXKLqxomIessy5WGNctYV+ahT+cGaBsyjB5SBds1o7J2zdPySmrslio4Oq22V/EEp+T0Yk0EnC3Wq+7T4/5mflcazMxsbnJyCv2InN0jmBdzPYQNTg3PLo2Cfxq5xe0NT8yfwNZuW9I1BHPCbaOGZRHoR0hVATQj/7eWRamzbVgFst7/HegW39a2JAgXKLNVgS7s+jpldH25dcH7EVnavp4JTqh7ORwVZkrPcwfHgkcKBCNAU+5YYlM+e9jcuFNCe7AhEfVijwZoqtRYPfB0zvsRRqxJgCAK1ZYv+SVX81f0+9kTaKPUWzxeHjFA6zby5WO+HmKjOmcG1MbfzA3e6Od1wKXqhtFbf9A3OyG9qmEr3IDVxMV7E3xVfHhWiYD3EGl51vS+1LfOlCjgu1lGpGJut2mLpGCoBPKc9dtom+jjW0c1sKUKjFtMM86BVBd/dsTZTVuPn2JSFR+M2cVT54rig5WXhBggJfHBgDVx2UhBfLCOY+mJo23l8OFcrf4Hzcf3Ltu8JamGD2bKIxPNbhdsWTr3gVr4IN4hMs1P44cMrodVCX/nIRLIyilYKFETvwtj+nCYSjhnrCT+BfQQ0Gh7xi2UKIiPYvrQaBvGDymHf7ZODFMBXbB6+NBD2EJOPQg9UQ8frOOYHTQbPrvi7UY5fBjehEfbMOzKUg0f4kXCVED8UOf9wVILH4Y34dE26IJdq2pddFTCR1H/2EN40LFV9RTCB8+1RB4O7IJwW2pV6uDDqP9ImArogjsWtSpl8HuJHgIIpXCNnlmVIvgoEn6d4CGAZV0l8GF4k5HoIcDZegXwYXhTxEMAg3T8bf34IOo/8qjLkvcQog/C1I2Pwpu2EzyEuFiGevHRwzfYQ+jyzyDFLqPXig9DlqPz8dxCiSAkvkZ89OBZzIp9gC8MIakNH3jtgvQBDF8XLlHVhI+j/uMDWSl+R7zKUw8+fuRVcBjF18UrbHXgZ37gWEX8navMj3urh98FT4CnrNgrh9+TiulTDB+FN6XG9CmFD8ObssT0qYQ/B+FNmWL61ME/geFN2aL+lcHnY2zc4VTGmD5V8C84+k47c0xfEfyrQsBQVlBnTUMipk8R/GUQeCYX06cI/h7Flw29VwR/18eXDoBWC9+QDQZVDF82rK/BL0MNvkANfroafIEa/HQ1+AI1+Olq8AVq8NPV4AvU4KerwReowU9Xgy9Qg5+uBl+gBj9dRfHFua+Uxj+j+OL1DJXx7y6t/7f0w+dydfFSmLL4fHih+ChF8flIKz1hVUNJfJBIqpMEoiA+jLTSr5LCNtTDR0mFkx/3Vw0fRFql74+jFv4yQ3ghkEr46KkbQXghkEL48LncbAmBlMHfg5FWGfNkKoIPs7dmz5OpBD56LlciC5YK+CCRlGnI5MmsHx8lFZbLglU3Pkw1KJ2ssmZ8kK4mRxYsIX57A/gn/MMdefJkLo9ET4y2/xZk5hSPP7vkAvTy5MkMU8ZE8bduy8tRHIcPU8zmyZN5ExoewDdpeZSWIToG/0aXjqlF13zn82txX8zZhUtLRBjB30VP3cgbPUgwbaz5PxaaZCavTx4fZO7IsWln8kMAT2ahi6fi3/ExtTkKCCRFNSMN1rTorU3B3wusVvzUjVg49X9MgwVuTvEdQQX4eRqHs0w7Yi3h8zEFk/vF41s50sejbR3E5boLM44XSq0Yj9+RTlF6IrM5F873nr8KCPAlSwT20npqm4I2ocq/jVEZ+HBDmUh+rViBh4G3cu+GVAI+2ig2ay+Nd5rIlVK3MD7aBEFiSIP2+cjRUBfGXxbaEQumIcizI2ghfLhRbCSRQAahJBDSe7gUwS9lRyyQgkN6Z/H8+HDySpfd9iAQ2g4xc9X3lBcfTl4Vy2a9hNshygyP8uHjyaui2az38m7zlAv/AmwUi/Nr5dI52mQr4yVz4EtsFCshvB1iNldaGj+bW5xHMCtatmkxSfwcG8VKCD/on96YyeHjreRL3+8Cb4eYVgVk8NGm2ZXsGHwmt7N4dnx44er2awYJqdPcqMz4N8Kt5EsX3L8qcTvEjPgwqVzle5Vn3jIvEz5KKreBneLRPt5CS82AjzqUHF55HqHOUTB8TsfvWTVtEQ9cE0ErnYaPnKmqjR4IOoaxfWQyPkz0mHs+ILeQWx7dqDYJHyZ6LO4W5xEaFOEpuQR8mGu5yFxYIcF4CuSdCycJk5PKbVJJEwLx+ObdOnOepA0I7dXM0QgmyEFW3IxDhyolmgwTLk+ERl/m7sj5Fb+zeAq+QjsbTddGtPNPxldrZyPsSs+S8SWnjDYgvBXsdE+ILz1htxGhJSgaZhDBL2fZtQLBmQ5aGzB+dWPB4gKudBx+vqWCzQmEqHn4tB8gq+pVbglekrogFRsX9/FkVLwleEkCrjQXn3WiUkufJM6VNpTbbDKLaBUwDUW2WJXWjWUYRklT3LVo53+oqI0aNWrUqFGjRo0aNWrUqFGjRv+DbNvOd+Ih0bBcmAQNDwO9BJ8NxpqmjQ69Nw77+qOf4XJ9jei6KtqIDrRAK/rRhH0wJqW4Hx5wnf4DFt6Bz5Ui84riX4efaA7A994na+AftzHrieD7ZT86fXX/fbV9/OfX10/v48+0y7lW9+Ue91Y5NxXBX9l9Iq+yOoTy3iGvxs/kE4I/cv/vr8g3L0nX8s9ejDdo/AR/wr0/JZB+q+M45F+G32qN0KExOiQnu9b3DNutl8OF94G9oC882S9JbZSziDYWL2+H6COEbxP6Q/6AEJ+wfSXjuz/+3rskxZp8Ho8d54dc9MO/QHAD7ZVfyxfeu+/7Y1+fr977vl8DBzZ3nT6xZ+0gCd9rOcABIf4iHd894rT1Eho/qcms7jvf9IVXgE5Q5RasaLSw1eqzd2M7uM5w7H+0n4BPKi40XFj6g0R6x7t1dnCG92dH2r1X793Xn/dB+Q1JFRs9M16E751AjJXCkOt8aT/HWnjpWPzXyO0J8cl334n4b37behxUH68dfWPtm1tuxGKO6bGkGE+pNTn7roYr7+759/m+79+hYXAdF/MjrJkh/ufXtSuPUYsgBi3PKT41qi+/0q4C4yd/9pNdl4DZoXE65J++xrWy9jM1rRG9wILdb3KdH/LiWIOdD9fusz/zEcF377p321MKv0V/6XdwCweM7oeWcguXwT1nkOzo8DeyFwNmI6ca7BNj8GFjxve6oEmKakixncDeBqyqHdNy9X4Hw3e+395+/LvCTj9mL/zfxAqbXGfBLojxX1dEA4a/EOGnuTwHrIgDxuCvBdVhHOC/PdPLMvx7dvB+UB/Z+UExxOFzVTdaxtT2R5HfFdXI+4muq33NV7kAvw/wQ9fqNCTx/ZZFbvwvDfesFJ9c8jWZ3tZ4HSTjk797ve91RT6+E9aKEH8liU/e3sfhe2xOIv4LwB8l42u0SR8xfO72hrY/4mw/C/5LhJI1nKvIfcGaAHwPUojvMNgxxf/Wwv6SfOn7tuQ6jDoLvncC6FoZ/jC8uQJ53VrfIdLonxPiD+kBfY3rD4Km4Ye+GfJ3MRO+15D6N3Ey4fG9jjyp3ecJmHMqxO/TA1g/O/Bqi237Y2wC8UXP+k7Fv6ajWe8Dv945tjPwTw3wiUdwnIC/r4XDmQNa0cW2Twr4zfUSaLv/ExodK4njCTl23ErF505Eg8Mhh9+PVAuoCXcfmaWJ8amP9jzx8ceQImwFHEn81nf4wYovfa+lTvA4f7TQmfWK7yP0yDw8D5/+Lt9sXLqJX2MxBeV/pqinGvVlEpwG5ucPWXfoeSsfGmvwvfsi7nnJeBO8cSlt9lk/8qI1PFgd2uyIfih6he/B1yDoJ202lg1ecF+gE93fPjm9Hhza4QGAqVGjRv+5/gFBakEiFDULagAAAABJRU5ErkJggg==;" vertex="1" parent="1">
          <mxGeometry x="598.3" y="650" width="71.7" height="100" as="geometry" />
        </mxCell>
        <mxCell id="BDgDIyLqdAixnrCIeVsv-19" value="&lt;h1&gt;Pxxxx&lt;/h1&gt;&lt;p&gt;&lt;/p&gt;&lt;ul&gt;&lt;li&gt;Trunk-Based Development (single branch)&lt;/li&gt;&lt;li&gt;Pair/ensemble by default (&amp;gt; 80% time)&lt;/li&gt;&lt;li&gt;TDD (BDD mindset)&lt;/li&gt;&lt;li&gt;Baby-commits and push (every few minutes)&lt;/li&gt;&lt;/ul&gt;&lt;p&gt;&lt;/p&gt;" style="text;html=1;strokeColor=none;fillColor=none;spacing=5;spacingTop=-20;whiteSpace=wrap;overflow=hidden;rounded=0;dashed=1;" vertex="1" parent="1">
          <mxGeometry x="60" y="40" width="310" height="140" as="geometry" />
        </mxCell>
        <mxCell id="BDgDIyLqdAixnrCIeVsv-20" value="" style="shape=step;perimeter=stepPerimeter;whiteSpace=wrap;html=1;fixedSize=1;" vertex="1" parent="1">
          <mxGeometry x="280" y="339.5" width="110" height="50.5" as="geometry" />
        </mxCell>
        <mxCell id="BDgDIyLqdAixnrCIeVsv-21" value="" style="shape=step;perimeter=stepPerimeter;whiteSpace=wrap;html=1;fixedSize=1;" vertex="1" parent="1">
          <mxGeometry x="474.5" y="330" width="110" height="50.5" as="geometry" />
        </mxCell>
        <mxCell id="BDgDIyLqdAixnrCIeVsv-22" value="" style="shape=step;perimeter=stepPerimeter;whiteSpace=wrap;html=1;fixedSize=1;" vertex="1" parent="1">
          <mxGeometry x="610" y="329.75" width="110" height="50.5" as="geometry" />
        </mxCell>
        <mxCell id="BDgDIyLqdAixnrCIeVsv-23" value="" style="shape=step;perimeter=stepPerimeter;whiteSpace=wrap;html=1;fixedSize=1;" vertex="1" parent="1">
          <mxGeometry x="750" y="329.75" width="110" height="50.5" as="geometry" />
        </mxCell>
        <mxCell id="BDgDIyLqdAixnrCIeVsv-24" value="" style="shape=step;perimeter=stepPerimeter;whiteSpace=wrap;html=1;fixedSize=1;" vertex="1" parent="1">
          <mxGeometry x="870" y="329.75" width="110" height="50.5" as="geometry" />
        </mxCell>
        <mxCell id="BDgDIyLqdAixnrCIeVsv-25" value="" style="shape=step;perimeter=stepPerimeter;whiteSpace=wrap;html=1;fixedSize=1;" vertex="1" parent="1">
          <mxGeometry x="990" y="329.75" width="110" height="50.5" as="geometry" />
        </mxCell>
      </root>
    </mxGraphModel>
  </diagram>
</mxfile>
